<?xml version="1.0" encoding="UTF-8" standalone="no"?>
<!DOCTYPE svg PUBLIC "-//W3C//DTD SVG 1.1//EN" "http://www.w3.org/Graphics/SVG/1.1/DTD/svg11.dtd">
<svg width="100%" height="100%" viewBox="0 0 1200 1200" version="1.1" xmlns="http://www.w3.org/2000/svg" xmlns:xlink="http://www.w3.org/1999/xlink" xml:space="preserve" xmlns:serif="http://www.serif.com/" style="fill-rule:evenodd;clip-rule:evenodd;stroke-linejoin:round;stroke-miterlimit:2;">
    <g transform="matrix(2.39999,0,0,2.39999,-840.005,-839.998)">
        <g transform="matrix(0.39987,0,0,0.39987,361.548,361.545)">
            <circle cx="599.992" cy="599.992" r="599.992" style="fill:white;"/>
        </g>
        <path d="M593.6,350L606.393,350C607.194,350.082 607.995,350.207 608.799,350.23C622.029,350.629 635.135,352.156 648.111,354.699C665.197,358.047 681.763,363.125 697.759,370.015C735.529,386.277 767.439,410.347 793.525,442.117C808.927,460.875 821.283,481.488 830.673,503.871C837.915,521.125 843.122,538.98 846.314,557.418C847.904,566.617 849.006,575.875 849.494,585.203C849.631,587.832 849.826,590.461 849.998,593.09L849.998,607.164C849.924,607.707 849.799,608.25 849.783,608.793C849.385,621.336 847.982,633.766 845.67,646.098C840.736,672.422 831.76,697.289 818.768,720.7C803.092,748.946 782.702,773.266 757.694,793.72C743.956,804.954 729.174,814.603 713.382,822.693C697.109,831.025 680.124,837.498 662.421,842.064C647.003,846.04 631.347,848.56 615.444,849.497C613.026,849.642 610.608,849.833 608.19,850.001L591.815,850.001C591.143,849.923 590.471,849.822 589.799,849.763C581.698,849.052 573.569,848.568 565.502,847.579C555.701,846.38 546.041,844.314 536.486,841.786C510.724,834.978 486.674,824.298 464.326,809.794C441.099,794.72 420.916,776.29 403.752,754.567C388.686,735.497 376.647,714.665 367.643,692.083C361.256,676.067 356.592,659.56 353.659,642.567C352.073,633.372 350.972,624.114 350.491,614.786C350.362,612.329 350.167,609.876 350.003,607.419L350.003,592.579C350.089,591.739 350.222,590.9 350.249,590.06C350.558,580.681 351.483,571.353 352.909,562.083C355.382,545.97 359.366,530.235 364.991,514.931C380.038,474.001 404.077,439.263 437.042,410.741C463.39,387.944 493.272,371.448 526.534,361.085C538.292,357.421 550.261,354.585 562.46,352.921C570.261,351.854 578.128,351.257 585.968,350.499C588.499,350.253 591.054,350.163 593.601,350.003L593.6,350ZM599.92,793.18C706.87,793.207 792.99,707.133 793.14,600.07C793.281,493.3 707.101,407 600.26,406.92C493.1,406.846 407.05,492.721 406.85,599.92C406.655,706.7 493.018,793.15 599.92,793.17L599.92,793.18Z" style="fill-rule:nonzero;"/>
        <path d="M510.96,792.51C510.878,792.483 510.796,792.455 510.714,792.424"/>
        <g transform="matrix(1,0,0,1,0.409992,0)">
            <path d="M467.971,466.095C467.654,466.564 467.557,466.759 467.416,466.92C452.643,483.455 440.256,501.58 430.85,521.697C421.498,541.705 415.616,562.666 413.643,584.685C413.522,586.036 413.432,587.56 414.635,588.599C424.787,597.364 435.526,605.318 447.131,612.076C469.096,624.865 492.549,633.115 517.943,635.584C522.924,636.068 527.9,636.306 532.873,636.306C539.814,636.306 546.744,635.842 553.662,634.931C565.814,633.33 577.635,630.326 589.178,626.209C598.026,623.052 607.123,621.134 616.537,621.013C616.842,621.009 617.143,621.006 617.447,621.006C626.9,621.006 636.037,622.884 644.908,626.158C654.174,629.58 662.92,634.072 671.334,639.189C679.194,643.966 686.912,648.982 694.705,653.869C695.522,654.381 695.713,654.881 695.397,655.834C682.385,695.186 669.397,734.545 656.413,773.904C655.764,775.865 655.135,777.833 654.44,779.962C654.959,779.868 655.288,779.822 655.604,779.747C661.733,778.326 667.604,776.263 672.897,772.763C673.819,772.154 674.889,771.763 675.78,771.119C676.381,770.681 677.01,770.06 677.256,769.384C705.932,690.142 734.572,610.884 763.213,531.634C764.917,526.919 766.624,522.204 768.354,517.4C767.569,516.939 766.835,516.521 766.116,516.08C763.502,514.486 760.819,513.049 758.561,510.885C752.62,505.193 746.569,499.612 740.541,494.01C731.693,485.787 722.193,478.526 711.096,473.494C702.78,469.724 694.194,467.302 685.049,467.302C684.764,467.302 684.475,467.306 684.19,467.31C675.846,467.451 667.729,469.044 659.987,472.052C651.662,475.29 643.467,478.88 635.307,482.517C625.623,486.83 615.998,491.244 605.639,493.798C595.248,496.361 584.768,498.396 574.108,499.408C568.69,499.923 563.272,500.204 557.842,500.204C554.068,500.204 550.295,500.068 546.518,499.783C538.772,499.193 531.112,498.076 523.565,496.267C509.51,492.9 496.323,487.408 483.858,480.103C478.026,476.689 472.553,472.943 468.725,467.212C468.522,466.915 468.314,466.606 467.971,466.099L467.971,466.095Z" style="fill-rule:nonzero;"/>
        </g>
        <path d="M413.99,596.26C416.842,598.526 419.447,600.639 422.099,602.694C435.169,612.823 448.962,621.788 463.986,628.776C477.334,634.983 491.259,639.35 505.802,641.667C518.614,643.706 531.501,644.065 544.431,643.057C555.661,642.182 566.771,640.592 577.595,637.381C585.584,635.01 593.509,632.405 601.536,630.178C612.485,627.139 623.466,626.854 634.348,630.686C638.653,632.202 642.821,633.999 646.875,636.417C628.676,686.69 610.48,736.957 592.273,787.247C585.777,787.501 579.492,786.813 573.316,784.446C574.426,781.141 575.504,777.93 576.59,774.715C584.633,750.942 592.672,727.164 600.738,703.399C601.054,702.466 600.886,702.013 600.078,701.446C598.05,700.017 595.984,698.735 593.613,697.911C587.914,695.927 582.32,693.602 576.551,691.86C570.223,689.95 563.649,689.95 557.16,690.989C547.125,692.591 537.094,693.872 526.894,693.403C518.96,693.04 511.117,692.044 503.367,690.298C486.656,686.524 471.133,680.005 457.078,670.146C442.375,659.83 430.848,646.798 423.215,630.443C420.625,624.892 417.719,619.478 416.191,613.49C414.773,607.939 413.938,602.314 413.988,596.263L413.99,596.26Z" style="fill:rgb(255,0,0);"/>
        <g transform="matrix(0.416668,0,0,0.416668,204.168,195)">
            <g id="Antwerp">
                <g transform="matrix(0.909898,0.414833,-0.414833,0.909898,671.594,-139.92)">
                    <text x="657.894px" y="1476.06px" style="font-family:'OpenDyslexic-Regular', 'OpenDyslexic';font-size:120px;fill:white;">A</text>
                </g>
                <g transform="matrix(0.96252,0.271211,-0.271211,0.96252,439.198,-145.799)">
                    <text x="747.112px" y="1516.15px" style="font-family:'OpenDyslexic-Regular', 'OpenDyslexic';font-size:120px;fill:white;">N</text>
                </g>
                <g transform="matrix(0.994206,0.107494,-0.107494,0.994206,170.355,-80.1843)">
                    <text x="828.959px" y="1540.1px" style="font-family:'OpenDyslexic-Regular', 'OpenDyslexic';font-size:120px;fill:white;">T</text>
                </g>
                <g transform="matrix(0.997857,-0.0654374,0.0654374,0.997857,-99.6638,63.5361)">
                    <text x="920.072px" y="1553.18px" style="font-family:'OpenDyslexic-Regular', 'OpenDyslexic';font-size:120px;fill:white;">W</text>
                </g>
                <g transform="matrix(0.9746,-0.223952,0.223952,0.9746,-318.962,273.88)">
                    <text x="1047.93px" y="1543.1px" style="font-family:'OpenDyslexic-Regular', 'OpenDyslexic';font-size:120px;fill:white;">E</text>
                </g>
                <g transform="matrix(0.935899,-0.352269,0.352269,0.935899,-466.073,492.505)">
                    <text x="1120.25px" y="1526.91px" style="font-family:'OpenDyslexic-Regular', 'OpenDyslexic';font-size:120px;fill:white;">R</text>
                </g>
                <g transform="matrix(0.879555,-0.475798,0.475798,0.879555,-567.385,751.39)">
                    <text x="1200.42px" y="1496.37px" style="font-family:'OpenDyslexic-Regular', 'OpenDyslexic';font-size:120px;fill:white;">P</text>
                </g>
            </g>
        </g>
        <g transform="matrix(0.416668,0,0,0.416668,261.087,252.158)">
            <g id="Antifa">
                <g transform="matrix(0.921604,-0.388133,0.388133,0.921604,-111.127,260.419)">
                    <text x="589.09px" y="405.298px" style="font-family:'OpenDyslexic-Regular', 'OpenDyslexic';font-size:120px;fill:white;">A</text>
                </g>
                <g transform="matrix(0.980483,-0.196602,0.196602,0.980483,-59.0073,140.783)">
                    <text x="679.588px" y="367.598px" style="font-family:'OpenDyslexic-Regular', 'OpenDyslexic';font-size:120px;fill:white;">N</text>
                </g>
                <text x="763.086px" y="350px" style="font-family:'OpenDyslexic-Regular', 'OpenDyslexic';font-size:120px;fill:white;">T</text>
                <g transform="matrix(0.992449,0.122662,-0.122662,0.992449,49.5836,-102.181)">
                    <text x="854.681px" y="351.614px" style="font-family:'OpenDyslexic-Regular', 'OpenDyslexic';font-size:120px;fill:white;">I</text>
                </g>
                <g transform="matrix(0.973591,0.228301,-0.228301,0.973591,104.353,-192.978)">
                    <text x="886.292px" y="354.559px" style="font-family:'OpenDyslexic-Regular', 'OpenDyslexic';font-size:120px;fill:white;">F</text>
                </g>
                <g transform="matrix(0.915608,0.402072,-0.402072,0.915608,228.737,-352.079)">
                    <text x="953.079px" y="368.851px" style="font-family:'OpenDyslexic-Regular', 'OpenDyslexic';font-size:120px;fill:white;">A</text>
                </g>
            </g>
        </g>
    </g>
</svg>